<?xml version="1.0" encoding="UTF-8"?>
<!DOCTYPE svg PUBLIC "-//W3C//DTD SVG 1.1//EN" "http://www.w3.org/Graphics/SVG/1.1/DTD/svg11.dtd">
<!-- Creator: CorelDRAW 2018 (64 Bit) -->
<svg xmlns="http://www.w3.org/2000/svg" xml:space="preserve" width="140mm" height="140mm" version="1.1" style="shape-rendering:geometricPrecision; text-rendering:geometricPrecision; image-rendering:optimizeQuality; fill-rule:evenodd; clip-rule:evenodd"
viewBox="0 0 14000 14000"
 xmlns:xlink="http://www.w3.org/1999/xlink">
 <defs>
  <style type="text/css">
   <![CDATA[
    .fil0 {fill:white;fill-rule:nonzero}
   ]]>
  </style>
 </defs>
 <g id="Capa_x0020_1">
  <metadata id="CorelCorpID_0Corel-Layer"/>
  <g id="_2358526098592">
   <path class="fil0" d="M9114.76 5904.82l0 -1784.82c91.86,-41.74 155.86,-134.07 155.86,-241.54 0,-146.57 -118.82,-265.39 -265.39,-265.39 -57.45,0 -110.47,18.45 -153.9,49.45l-1765.98 -1019.6 -1745.05 1007.56c-44.43,-33.52 -99.54,-53.63 -159.47,-53.63 -146.58,0 -265.39,118.83 -265.39,265.4 0,101.43 56.94,189.49 140.55,234.17l0 1744.79c-77.88,46.25 -130.24,130.96 -130.24,228.12 0,146.56 118.82,265.38 265.38,265.38 43.48,0 84.38,-10.65 120.59,-29.19l1773.63 1024.06 1723.12 -994.87c46.62,40.62 107.4,65.4 174.09,65.4 146.57,0 265.39,-118.82 265.39,-265.38 0,-98.4 -53.67,-184.07 -133.19,-229.91zm-286.52 14.3l0 0 -823.58 -931.43c42.21,-46.99 68.12,-108.93 68.12,-177.08 0,-32.87 -6.27,-64.21 -17.2,-93.28l768.48 -645.31c29.12,27.27 64.22,48.19 103.32,60.18l0 1742.96c-36.4,7.71 -69.93,23 -99.14,43.96zm-3400.65 -1959.67l0 0 1343.65 122.16c10,47.02 32.58,89.26 63.86,123.45l-592.87 1034.78c-8.08,-0.74 -16.23,-1.24 -24.48,-1.24 -37.87,0 -73.81,8.06 -106.4,22.35l-742.72 -1211.21c25.44,-25.48 45.53,-56.21 58.96,-90.29zm3289.99 18.58l0 0 -744.68 625.34c-45.4,-36.3 -102.87,-58.13 -165.52,-58.13 -59.43,0 -114.11,19.77 -158.34,52.78l-420.14 -395.77c36.23,-40.74 60.27,-92.54 65.9,-149.87l1422.78 -74.35zm-2320.85 1330.42l0 0c-6.91,-6.33 -14.15,-12.29 -21.7,-17.87l578.93 -1010.41c24.32,7.35 50.06,11.39 76.77,11.39 26.47,0 52,-4 76.12,-11.21l455.3 428.88c-12.94,31.25 -20.16,65.46 -20.16,101.38 0,9.74 0.6,19.33 1.62,28.78l-1146.88 469.06zm86.4 195.54l0 0c0,-25.94 -3.88,-50.94 -10.82,-74.63l1123.22 -459.38c14.59,19.37 31.71,36.63 50.97,51.35l-600.35 2009.88 -665.19 -1318.26c62.11,-48.57 102.17,-124.01 102.17,-208.96zm2260.42 -1667.98l0 0 -1473.05 76.96c-34.24,-72.38 -100.08,-126.71 -179.86,-145.16l53.65 -874.52 1602.6 925.25c-1.33,5.76 -2.39,11.58 -3.34,17.47zm-1793.97 -62.48l0 0c-80,25.67 -143.28,88.29 -170.12,167.76l-1336.97 -121.54c-0.57,-3.65 -0.93,-7.39 -1.67,-11l1561.91 -901.77 -53.15 866.55zm-1703.21 345.61l0 0 755.1 1231.41c-30.81,43.36 -49.11,96.21 -49.11,153.44 0,26.61 4.03,52.25 11.31,76.48l-571.68 315.71c-37.83,-43.85 -89.63,-75.26 -148.62,-87.05l0 -1689.21c1,-0.25 1.99,-0.52 3,-0.78zm205.9 1904.18l0 0 586.44 -323.85c47.21,43.27 109.94,69.91 179.04,69.91 11.25,0 22.26,-0.94 33.16,-2.3l615.46 1219.7 -1427.12 -823.95c10.98,-29.12 17.27,-60.54 17.27,-93.5 0,-15.72 -1.64,-31.03 -4.25,-46.01zm2325.05 -949.13l0 0c9.89,1.11 19.88,1.83 30.06,1.83 26.99,0 53.02,-4.1 77.55,-11.58l853.79 965.57c-13.82,32.13 -21.54,67.5 -21.54,104.72 0,11.85 1.04,23.44 2.55,34.9l-1534.17 885.74 591.76 -1981.18z"/>
   <path class="fil0" d="M2003.28 10975.7c0,0 -34.49,95.49 -34.49,95.49 0,0 -286.48,0 -286.48,0 0,0 -69.01,190.37 -69.01,190.37 0,0 142.95,0 142.95,0 0,0 34.49,-94.88 34.49,-94.88 0,0 142.92,0 142.92,0 0,0 -46.19,127.53 -46.19,127.53 -14.17,38.83 -48.67,62.85 -89.96,62.85 0,0 -362.26,0 -362.26,0 0,0 115.84,-318.51 115.84,-318.51 14.15,-38.2 48.67,-62.85 89.93,-62.85 0,0 362.26,0 362.26,0zm70.84 0.61c0,0 142.94,0 142.94,0 0,0 -104.11,285.86 -104.11,285.86 0,0 226.72,0 226.72,0 0,0 -34.5,94.89 -34.5,94.89 0,0 -369.66,0 -369.66,0 0,0 138.61,-380.75 138.61,-380.75zm824.95 -0.61c0,0 -348.08,0 -348.08,0 -40.66,0 -75.17,24.65 -89.33,62.85 0,0 -115.83,318.51 -115.83,318.51 0,0 348.08,0 348.08,0 40.68,0 75.18,-24.66 89.35,-62.85 0,0 115.81,-318.51 115.81,-318.51zm-375.8 285.86c0,0 69.62,-190.37 69.62,-190.37 0,0 128.77,0 128.77,0 0,0 -69.62,190.37 -69.62,190.37 0,0 -128.77,0 -128.77,0zm308.03 95.5c0,0 362.26,0 362.26,0 40.66,0 75.18,-24.66 89.33,-62.85 0,0 32.03,-88.09 32.03,-88.09 12.96,-40.05 -17.24,-39.44 -20.92,-40.05 23.41,-1.85 39.41,-16.64 49.89,-40.05 0,0 31.42,-86.25 31.42,-86.25 11.69,-31.43 -11.72,-64.07 -44.36,-64.07 0,0 -361.04,0 -361.04,0 0,0 -138.61,381.36 -138.61,381.36zm240.27 -285.87c0,0 156.48,0 156.48,0 0,0 -24.62,60.37 -24.62,60.37 0,0 -155.88,0 -155.88,0 0,0 24.02,-60.37 24.02,-60.37zm109.66 128.77c0,0 -22.77,61.6 -22.77,61.6 0,0 -155.88,0 -155.88,0 0,0 22.8,-61.6 22.8,-61.6 0,0 155.85,0 155.85,0zm147.87 157.1c0,0 142.94,0 142.94,0 0,0 35.11,-95.5 35.11,-95.5 0,0 142.94,0 142.94,0 0,0 -35.13,95.5 -35.13,95.5 0,0 143.56,0 143.56,0 0,0 138.61,-381.36 138.61,-381.36 0,0 -362.26,0 -362.26,0 -41.27,0 -75.78,24.65 -89.94,62.85 0,0 -115.83,318.51 -115.83,318.51zm247.06 -285.87c0,0 142.92,0 142.92,0 0,0 -34.49,95.49 -34.49,95.49 0,0 -142.95,0 -142.95,0 0,0 34.52,-95.49 34.52,-95.49zm391.81 -94.88c0,0 142.94,0 142.94,0 0,0 -104.11,285.86 -104.11,285.86 0,0 226.71,0 226.71,0 0,0 -34.49,94.89 -34.49,94.89 0,0 -369.66,0 -369.66,0 0,0 138.61,-380.75 138.61,-380.75zm836.67 94.88c0,0 118.9,0.61 118.9,0.61 0,0 34.49,-95.49 34.49,-95.49 -134.91,-0.61 -269.84,-0.61 -404.77,-0.61 0,0 -34.49,95.49 -34.49,95.49 0,0 142.92,0 142.92,0 0,0 -104.11,285.87 -104.11,285.87 0,0 142.94,0 142.94,0 0,0 104.12,-285.87 104.12,-285.87zm641.35 -95.49c0,0 -34.5,95.49 -34.5,95.49 0,0 -286.47,0 -286.47,0 0,0 -17.25,49.28 -17.25,49.28 0,0 238.41,0 238.41,0 0,0 -31.42,79.49 -31.42,79.49 0,0 -238.41,0 -238.41,0 0,0 -20.34,61.6 -20.34,61.6 0,0 285.86,0 285.86,0 0,0 -34.49,95.5 -34.49,95.5 0,0 -429.42,0 -429.42,0 0,0 138.61,-381.36 138.61,-381.36 0,0 429.42,0 429.42,0zm444.81 0c0,0 -34.49,95.49 -34.49,95.49 0,0 -245.21,0 -245.21,0 0,0 -69.62,190.37 -69.62,190.37 0,0 245.21,0 245.21,0 0,0 -34.5,95.5 -34.5,95.5 0,0 -320.38,0 -320.38,0 -32.64,0 -56.05,-33.28 -44.36,-64.07 0,0 92.42,-254.44 92.42,-254.44 14.18,-38.2 48.67,-62.85 89.33,-62.85 0,0 321.6,0 321.6,0zm494.09 0c0,0 -142.92,0 -142.92,0 0,0 -50.52,136.76 -50.52,136.76 0,0 -142.94,0 -142.94,0 0,0 50.52,-136.76 50.52,-136.76 0,0 -143.55,0 -143.55,0 0,0 -138.61,381.36 -138.61,381.36 0,0 142.94,0 142.94,0 0,0 53.59,-149.09 53.59,-149.09 0,0 142.92,0 142.92,0 0,0 -53.59,149.09 -53.59,149.09 0,0 143.56,0 143.56,0 0,0 138.6,-381.36 138.6,-381.36zm705.42 0c0,0 -34.49,95.49 -34.49,95.49 0,0 -286.48,0 -286.48,0 0,0 -17.24,47.43 -17.24,47.43 0,0 218.09,0 218.09,0 33.25,0 56.06,32.67 44.97,64.09 0,0 -40.66,112.13 -40.66,112.13 -14.17,38.2 -48.67,62.22 -89.96,62.22 0,0 -362.25,0 -362.25,0 0,0 34.49,-95.5 34.49,-95.5 0,0 286.5,0 286.5,0 0,0 17.24,-47.45 17.24,-47.45 0,0 -218.09,0 -218.09,0 -33.28,0 -56.08,-32.64 -44.99,-64.07 0,0 40.68,-111.49 40.68,-111.49 14.15,-38.2 48.67,-62.85 89.93,-62.85 0,0 362.26,0 362.26,0zm485.47 0c0,0 -348.08,0 -348.08,0 -40.65,0 -75.17,24.65 -89.33,62.85 0,0 -115.83,318.51 -115.83,318.51 0,0 348.08,0 348.08,0 40.68,0 75.18,-24.66 89.36,-62.85 0,0 115.8,-318.51 115.8,-318.51zm-375.8 285.86c0,0 69.62,-190.37 69.62,-190.37 0,0 128.77,0 128.77,0 0,0 -69.62,190.37 -69.62,190.37 0,0 -128.77,0 -128.77,0zm446.64 -285.25c0,0 142.95,0 142.95,0 0,0 -104.12,285.86 -104.12,285.86 0,0 226.72,0 226.72,0 0,0 -34.49,94.89 -34.49,94.89 0,0 -369.67,0 -369.67,0 0,0 138.61,-380.75 138.61,-380.75zm402.33 -0.61c0,0 143.53,0 143.53,0 0,0 -104.11,285.86 -104.11,285.86 0,0 131.86,0 131.86,0 0,0 104.11,-285.86 104.11,-285.86 0,0 142.92,0 142.92,0 0,0 -115.8,318.51 -115.8,318.51 -14.18,38.83 -48.68,62.85 -89.97,62.85 0,0 -282.77,0 -282.77,0 -33.27,0 -56.68,-32.65 -44.99,-64.07 0,0 115.22,-317.29 115.22,-317.29zm710.34 95.49c0,0 118.9,0.61 118.9,0.61 0,0 34.5,-95.49 34.5,-95.49 -134.91,-0.61 -269.84,-0.61 -404.77,-0.61 0,0 -34.49,95.49 -34.49,95.49 0,0 142.92,0 142.92,0 0,0 -104.12,285.87 -104.12,285.87 0,0 142.95,0 142.95,0 0,0 104.11,-285.87 104.11,-285.87zm73.32 285.87c0,0 142.95,0 142.95,0 0,0 138.61,-380.75 138.61,-380.75 0,0 -142.95,0 -142.95,0 0,0 -138.61,380.75 -138.61,380.75zm767.03 -381.36c0,0 -348.08,0 -348.08,0 -40.66,0 -75.18,24.65 -89.33,62.85 0,0 -115.83,318.51 -115.83,318.51 0,0 348.08,0 348.08,0 40.68,0 75.17,-24.66 89.35,-62.85 0,0 115.81,-318.51 115.81,-318.51zm-375.8 285.86c0,0 69.62,-190.37 69.62,-190.37 0,0 128.76,0 128.76,0 0,0 -69.62,190.37 -69.62,190.37 0,0 -128.76,0 -128.76,0zm308.03 95.5c0,0 142.94,0 142.94,0 0,0 69.6,-190.38 69.6,-190.38 0,0 73.32,190.38 73.32,190.38 0,0 143.56,0 143.56,0 0,0 138.61,-381.36 138.61,-381.36 0,0 -142.92,0 -142.92,0 0,0 -69.62,190.98 -69.62,190.98 0,0 -73.33,-190.98 -73.33,-190.98 0,0 -143.55,0 -143.55,0 0,0 -138.61,381.36 -138.61,381.36zm1068.28 -381.36c0,0 -34.49,95.49 -34.49,95.49 0,0 -286.47,0 -286.47,0 0,0 -17.25,47.43 -17.25,47.43 0,0 218.09,0 218.09,0 33.26,0 56.06,32.67 44.97,64.09 0,0 -40.65,112.13 -40.65,112.13 -14.18,38.2 -48.68,62.22 -89.96,62.22 0,0 -362.26,0 -362.26,0 0,0 34.49,-95.5 34.49,-95.5 0,0 286.5,0 286.5,0 0,0 17.25,-47.45 17.25,-47.45 0,0 -218.1,0 -218.1,0 -33.28,0 -56.08,-32.64 -44.99,-64.07 0,0 40.68,-111.49 40.68,-111.49 14.15,-38.2 48.67,-62.85 89.94,-62.85 0,0 362.25,0 362.25,0zm649.98 0c0,0 -34.5,95.49 -34.5,95.49 0,0 -245.2,0 -245.2,0 0,0 -69.62,190.37 -69.62,190.37 0,0 245.2,0 245.2,0 0,0 -34.49,95.5 -34.49,95.5 0,0 -320.38,0 -320.38,0 -32.65,0 -56.06,-33.28 -44.36,-64.07 0,0 92.42,-254.44 92.42,-254.44 14.18,-38.2 48.67,-62.85 89.33,-62.85 0,0 321.6,0 321.6,0zm479.31 0c0,0 -348.08,0 -348.08,0 -40.66,0 -75.18,24.65 -89.33,62.85 0,0 -115.83,318.51 -115.83,318.51 0,0 348.08,0 348.08,0 40.68,0 75.17,-24.66 89.35,-62.85 0,0 115.81,-318.51 115.81,-318.51zm-375.81 285.86c0,0 69.63,-190.37 69.63,-190.37 0,0 128.76,0 128.76,0 0,0 -69.62,190.37 -69.62,190.37 0,0 -128.77,0 -128.77,0zm446.65 -285.25c0,0 142.94,0 142.94,0 0,0 -104.11,285.86 -104.11,285.86 0,0 226.71,0 226.71,0 0,0 -34.49,94.89 -34.49,94.89 0,0 -369.66,0 -369.66,0 0,0 138.61,-380.75 138.61,-380.75z"/>
   <g>
    <path class="fil0" d="M5761.56 7917.68c0,0 -251.46,696.02 -251.46,696.02 0,0 -2088.11,0 -2088.11,0 0,0 -502.95,1387.59 -502.95,1387.59 0,0 1041.83,0 1041.83,0l107.25 -294.96 -329.43 0c0,0 251.49,-696.02 251.49,-696.02l1372.08 0 -108.19 299.43 0.07 0 -23.51 64.89 -2.93 8.06 -2.97 8.2 -1.69 4.62 -112.27 310.82 -0.33 0 -193.11 532.95c-103.27,282.93 -354.74,458.05 -655.6,458.05 0,0 -2640.44,0 -2640.44,0 0,0 844.22,-2321.62 844.22,-2321.62 103.29,-278.41 354.73,-458.03 655.62,-458.03 0,0 2640.43,0 2640.43,0zm2128.54 696.02c0,0 866.68,4.5 866.68,4.5 0,0 251.47,-696.02 251.47,-696.02 -983.43,-4.5 -1966.87,-4.5 -2950.3,-4.5 0,0 -251.46,696.02 -251.46,696.02 0,0 1041.8,0 1041.8,0 0,0 -758.89,2083.63 -758.89,2083.63 0,0 1041.8,0 1041.8,0 0,0 758.9,-2083.63 758.9,-2083.63zm4674.67 -696.02c0,0 -251.49,696.02 -251.49,696.02 0,0 -2088.11,0 -2088.11,0 0,0 -125.72,345.78 -125.72,345.78 0,0 1589.66,0 1589.66,0 242.49,0 408.63,237.99 327.81,467.01 0,0 -296.39,817.29 -296.39,817.29 -103.27,278.43 -354.76,453.55 -655.62,453.55l-555 0 379.88 -1041.8c0,0 -1589.65,0 -1589.65,0 -242.49,0 -408.66,-238.02 -327.84,-467.03 0,0 296.39,-812.79 296.39,-812.79 103.29,-278.41 354.76,-458.03 655.62,-458.03 0,0 2640.46,0 2640.46,0z"/>
    <path class="fil0" d="M9213.08 10018.44c0,0 -61.42,169.99 -61.42,169.99 0,0 -289.12,0 -289.12,0 0,0 -123.92,338.92 -123.92,338.92 0,0 289.1,0 289.1,0 0,0 -61.42,169.98 -61.42,169.98 0,0 -422.9,0 -422.9,0 -58.14,0 -99.8,-59.21 -78.97,-114.07 0,0 164.5,-452.95 164.5,-452.95 25.24,-68 86.66,-111.87 159.04,-111.87 0,0 425.11,0 425.11,0zm806.42 0c0,0 -572.81,0 -572.81,0 -72.39,0 -133.81,43.87 -159.02,111.87 0,0 -206.19,567.02 -206.19,567.02 0,0 572.81,0 572.81,0 72.38,0 133.78,-43.86 159.02,-111.87 0,0 206.19,-567.02 206.19,-567.02zm-622.16 508.91c0,0 123.94,-338.92 123.94,-338.92 0,0 182.36,0 182.36,0 0,0 -123.94,338.92 -123.94,338.92 0,0 -182.36,0 -182.36,0zm748.3 -507.81c0,0 254.44,0 254.44,0 0,0 -185.36,508.88 -185.36,508.88 0,0 269.86,0 269.86,0 0,0 -61.42,168.91 -61.42,168.91 0,0 -524.3,0 -524.3,0 0,0 246.78,-677.79 246.78,-677.79z"/>
   </g>
  </g>
 </g>
</svg>
