<svg version="1.2" xmlns="http://www.w3.org/2000/svg" viewBox="0 0 2580 2688" width="2580" height="2688"><style>.a{fill:#fff}</style><path fill-rule="evenodd" class="a" d="m2368 1916.4c0 73.2-59.4 132.7-132.7 132.7-33.4 0-63.8-12.4-87.1-32.7l-861.5 497.4-886.8-512c-18.1 9.2-38.6 14.6-60.3 14.6-73.3 0-132.7-59.5-132.7-132.7 0-48.6 26.2-91 65.1-114.1v-872.4c-41.8-22.3-70.3-66.4-70.3-117.1 0-73.3 59.4-132.7 132.7-132.7 30 0 57.5 10.1 79.8 26.8l872.5-503.7 883 509.8c21.7-15.5 48.2-24.8 76.9-24.8 73.3 0 132.7 59.4 132.7 132.7 0 53.8-32 99.9-77.9 120.8v892.4c39.7 22.9 66.6 65.8 66.6 115zm-160.3-129.8v-871.5c-19.6-6-37.1-16.5-51.7-30.1l-384.2 322.7c5.5 14.5 8.6 30.2 8.6 46.6 0 34.1-13 65-34.1 88.5l411.8 465.8c14.6-10.5 31.4-18.2 49.6-22zm-1779.4-912.7l371.4 605.6c16.3-7.2 34.2-11.2 53.2-11.2 4.1 0 8.2 0.2 12.2 0.6l296.4-517.4c-15.6-17.1-26.9-38.2-31.9-61.7l-671.8-61.1c-6.7 17.1-16.8 32.4-29.5 45.2zm963.1 1.3c-2.8 28.7-14.8 54.6-33 74.9l210.1 197.9c22.1-16.5 49.5-26.4 79.2-26.4 31.3 0 60.1 10.9 82.7 29.1l372.4-312.7zm124.4 393.5c-0.5-4.7-0.8-9.5-0.8-14.4 0-17.9 3.6-35 10.1-50.7l-227.7-214.4c-12 3.6-24.8 5.6-38 5.6-13.4 0-26.3-2-38.4-5.7l-289.5 505.2q5.7 4.2 10.9 8.9zm-581.4 436.8l332.6 659.2 300.2-1005c-9.6-7.3-18.2-16-25.5-25.7l-561.6 229.7c3.5 11.9 5.4 24.4 5.4 37.3 0 42.5-20 80.2-51.1 104.5zm1183-947.2l-801.3-462.6-26.8 437.3c39.9 9.2 72.8 36.3 89.9 72.5l736.5-38.4c0.5-3 1-5.9 1.7-8.8zm-872.1-455.8l-780.9 450.9c0.3 1.8 0.5 3.7 0.8 5.5l668.5 60.8c13.4-39.7 45-71 85-83.9zm-879.6 606.5v844.6c29.5 5.9 55.4 21.6 74.3 43.5l285.8-157.8c-3.6-12.2-5.6-25-5.6-38.3 0-28.6 9.1-55 24.5-76.7l-377.5-615.7q-0.8 0.2-1.5 0.4zm106.5 974.7c0 16.5-3.1 32.2-8.6 46.7l713.6 412-307.8-609.8c-5.4 0.6-10.9 1.1-16.6 1.1-34.5 0-65.9-13.3-89.5-34.9l-293.2 161.9c1.3 7.5 2.1 15.1 2.1 23zm864.6 493l767-442.9c-0.7-5.7-1.2-11.5-1.2-17.4 0-18.6 3.8-36.3 10.7-52.4l-426.9-482.8c-12.2 3.8-25.2 5.8-38.7 5.8-5.1 0-10.1-0.3-15.1-0.9z"/></svg>