<svg version="1.2" xmlns="http://www.w3.org/2000/svg" viewBox="0 0 5868 2160" width="5868" height="2160">
	<title>LOGO FINAL GTS COL (BLANCO) (1)-svg</title>
	<style>
		.s0 { fill: #ffffff } 
	</style>
	<g id="Capa_x0020_1">
		<g id="_2358526098592">
			<path id="Layer" fill-rule="evenodd" class="s0" d="m389.6 1672.9l-17.2 47.7h-143.2l-34.6 95.2h71.5l17.3-47.5h71.4l-23.1 63.8c-7.1 19.4-24.3 31.4-44.9 31.4h-181.2l57.9-159.2c7.1-19.1 24.4-31.4 45-31.4zm35.4 0.3h71.5l-52.1 142.9h113.4l-17.2 47.4h-184.9zm354.6 159c-7.1 19.1-24.3 31.4-44.7 31.4h-174l57.9-159.2c7.1-19.1 24.3-31.5 44.7-31.5h174zm-65.6-16.3l34.8-95.2h-64.4l-34.8 95.2zm158.9-142.9h180.6c16.3 0 28 16.3 22.1 32l-15.7 43.1c-5.2 11.7-13.2 19.1-24.9 20.1 1.8 0.3 16.9 0 10.4 20l-16 44c-7 19.1-24.3 31.5-44.6 31.5h-181.2zm38.9 77.9h77.9l12.3-30.2h-78.2zm-11.1 34.2l-11.4 30.8h77.9l11.4-30.8zm209.8-80.7c7.1-19.1 24.3-31.4 44.9-31.4h181.2l-69.3 190.6h-71.8l17.6-47.7h-71.5l-17.6 47.7h-71.4zm48.3 64.1h71.5l17.2-47.7h-71.4zm213.1-95.2h71.5l-52 142.9h113.3l-17.2 47.5h-184.9zm366.3 190.3h-71.5l52.1-142.9h-71.5l17.3-47.7c67.4 0 134.9 0 202.4 0.3l-17.3 47.7-59.4-0.3zm372.7-190.7l-17.2 47.8h-143.3l-8.6 24.6h119.2l-15.7 39.7h-119.2l-10.2 30.8h142.9l-17.2 47.8h-214.7l69.3-190.7zm222.4 0l-17.2 47.8h-122.6l-34.9 95.1h122.6l-17.2 47.8h-160.2c-16.3 0-28-16.6-22.2-32l46.2-127.3c7.1-19.1 24.4-31.4 44.7-31.4zm177.7 190.7h-71.7l26.8-74.5h-71.5l-26.8 74.5h-71.5l69.3-190.7h71.8l-25.2 68.4h71.4l25.3-68.4h71.4zm422.1-190.7l-17.3 47.8h-143.2l-8.6 23.7h109c16.6 0 28 16.3 22.5 32l-20.3 56.1c-7.1 19.1-24.4 31.1-45 31.1h-181.2l17.3-47.7h143.2l8.7-23.8h-109.1c-16.6 0-28-16.3-22.5-32l20.4-55.7c7-19.1 24.3-31.5 44.9-31.5zm184.9 159.3c-7.1 19.1-24.4 31.4-44.7 31.4h-174.1l58-159.2c7-19.1 24.3-31.5 44.6-31.5h174.1zm-65.7-16.3l34.9-95.2h-64.4l-34.8 95.2zm158.9-142.6h71.5l-52.1 142.9h113.4l-17.3 47.5h-184.8zm201.2-0.3h71.7l-52 142.9h65.9l52.1-142.9h71.4l-57.9 159.2c-7.1 19.4-24.3 31.4-45 31.4h-141.4c-16.6 0-28.3-16.3-22.4-32zm303.1 190.7h-71.5l52-143h-71.4l17.2-47.7c67.5 0 135 0 202.4 0.3l-17.2 47.7-59.5-0.3zm158-190.3h71.5l-69.3 190.3h-71.5zm256.3 159c-7 19.1-24.3 31.4-44.6 31.4h-174.1l57.9-159.2c7.1-19.1 24.4-31.5 44.7-31.5h174zm-65.6-16.3l34.8-95.2h-64.3l-34.8 95.2zm158.9-142.9h71.8l36.6 95.5 34.8-95.5h71.5l-69.3 190.7h-71.8l-36.6-95.2-34.8 95.2h-71.5zm464.8 0l-17.2 47.7h-143.3l-8.6 23.7h109.1c16.6 0 28 16.4 22.4 32.1l-20.3 56c-7.1 19.1-24.3 31.1-45 31.1h-181.1l17.3-47.7h143.2l8.6-23.7h-109c-16.7 0-28.1-16.4-22.5-32.1l20.3-55.7c7.1-19.1 24.4-31.4 45-31.4zm325 0l-17.3 47.7h-122.6l-34.8 95.2h122.6l-17.2 47.7h-160.2c-16.3 0-28-16.6-22.2-32l46.2-127.2c7.1-19.1 24.4-31.4 44.7-31.4zm181.7 159.2c-7.1 19.1-24.3 31.4-44.6 31.4h-174.1l57.9-159.2c7.1-19.1 24.4-31.4 44.7-31.4h174zm-65.6-16.4l34.8-95.1h-64.3l-34.9 95.1zm159-142.6h71.5l-52.1 142.9h113.4l-17.3 47.5h-184.8z"/>
			<g id="Layer">
				<path id="Layer" fill-rule="evenodd" class="s0" d="m2268.8 143.8l-125.8 348.1h-1044l-251.5 693.7h520.9l53.7-147.4h-164.8l125.8-348h686l-54.1 149.7h0.1l-11.8 32.4-1.5 4-1.4 4.1-0.9 2.4-56.1 155.4h-0.2l-96.5 266.4c-51.7 141.5-177.4 229.1-327.8 229.1h-1320.3l422.2-1160.8c51.6-139.2 177.3-229.1 327.8-229.1zm684.8 1389.9h-520.9l379.4-1041.8h-520.9l125.8-348.1c491.7 0 983.4 0 1475.1 2.3l-125.7 348-433.4-2.2zm2716.8-1389.9l-125.7 348h-1044.1l-62.8 172.9h794.8c121.2 0 204.3 119 163.9 233.5l-148.2 408.7c-51.6 139.2-177.4 226.8-327.8 226.8h-277.5l189.9-520.9h-794.8c-121.2 0-204.3-119.1-163.9-233.6l148.2-406.4c51.6-139.2 177.4-229 327.8-229z"/>
				<path id="Layer" fill-rule="evenodd" class="s0" d="m3994.5 1194.2l-30.7 85h-144.5l-62 169.5h144.6l-30.8 85h-211.4c-29.1 0-49.9-29.6-39.5-57.1l82.3-226.4c12.6-34 43.3-56 79.5-56zm300.1 283.5c-12.6 34-43.3 56-79.5 56h-286.4l103.1-283.5c12.6-34 43.3-56 79.5-56h286.4zm-116.8-29l62-169.5h-91.2l-62 169.5zm283-253.9h127.2l-92.7 254.4h135l-30.8 84.5h-262.1z"/>
			</g>
		</g>
	</g>
</svg>