<?xml version="1.0" standalone="no"?>
<!DOCTYPE svg PUBLIC "-//W3C//DTD SVG 20010904//EN"
 "http://www.w3.org/TR/2001/REC-SVG-20010904/DTD/svg10.dtd">
<svg version="1.0" xmlns="http://www.w3.org/2000/svg"
 width="1024.000000pt" height="1024.000000pt" viewBox="0 0 1024.000000 1024.000000"
 preserveAspectRatio="xMidYMid meet">
<metadata>
Created by potrace 1.14, written by Peter Selinger 2001-2017
</metadata>
<g transform="translate(0.000000,1024.000000) scale(0.100000,-0.100000)"
fill="#000000" stroke="none">
<path d="M5046 10212 c-28 -15 -55 -31 -60 -35 -23 -17 -194 -114 -239 -136
-26 -12 -47 -27 -47 -32 0 -5 -5 -9 -11 -9 -6 0 -24 -9 -40 -21 -16 -11 -29
-17 -29 -14 0 3 -15 -4 -32 -17 -31 -22 -45 -30 -128 -75 -19 -11 -123 -71
-230 -133 -107 -62 -211 -123 -232 -134 -20 -12 -62 -36 -95 -55 -32 -19 -78
-45 -103 -59 -25 -14 -62 -36 -82 -49 -21 -12 -42 -23 -48 -23 -5 0 -10 -4
-10 -9 0 -5 -8 -11 -17 -15 -19 -6 -119 -61 -137 -75 -6 -4 -36 -21 -66 -37
-30 -16 -57 -32 -60 -35 -3 -3 -17 -12 -32 -20 -45 -23 -249 -141 -303 -174
-27 -18 -65 -38 -82 -46 -18 -8 -33 -17 -33 -21 0 -5 -7 -8 -15 -8 -8 0 -15
-5 -15 -10 0 -6 -3 -9 -7 -8 -5 1 -39 -16 -78 -39 -38 -22 -86 -50 -105 -60
-19 -11 -75 -44 -125 -74 -49 -29 -92 -54 -95 -54 -3 0 -16 -8 -30 -16 -42
-27 -124 -75 -140 -82 -8 -4 -37 -21 -65 -37 -27 -17 -61 -36 -75 -43 -14 -6
-27 -14 -30 -18 -3 -4 -30 -19 -60 -35 -30 -15 -57 -31 -60 -34 -3 -4 -10 -9
-15 -11 -10 -4 -336 -191 -365 -210 -8 -5 -93 -54 -189 -108 l-173 -99 -47 28
c-53 33 -142 69 -186 77 -55 9 -189 9 -224 0 -18 -5 -43 -10 -55 -12 -28 -6
-136 -56 -159 -75 -90 -73 -123 -106 -157 -160 -33 -50 -58 -98 -66 -125 -50
-161 -43 -299 23 -443 41 -91 135 -198 214 -243 l36 -21 0 -1904 0 -1904 -37
-25 c-62 -43 -190 -191 -190 -219 0 -3 -5 -17 -12 -33 -6 -15 -12 -30 -13 -33
-1 -3 -4 -12 -8 -20 -19 -50 -27 -226 -13 -285 4 -16 9 -37 10 -45 1 -8 12
-37 24 -64 12 -27 22 -51 22 -53 0 -2 6 -11 13 -18 6 -7 27 -35 46 -62 19 -26
57 -66 85 -88 61 -49 163 -104 192 -105 11 0 24 -3 28 -7 11 -11 47 -16 141
-16 103 -1 128 3 209 32 55 19 106 20 106 1 0 -4 8 -10 18 -13 9 -4 35 -18 57
-32 22 -14 54 -32 70 -40 17 -9 46 -25 65 -36 158 -94 220 -129 229 -129 6 0
11 -3 11 -8 0 -4 21 -18 47 -32 27 -14 82 -45 123 -69 147 -87 175 -102 193
-108 9 -3 17 -9 17 -14 0 -5 4 -9 10 -9 5 0 31 -13 58 -29 26 -15 68 -40 93
-53 24 -14 116 -67 204 -119 88 -51 174 -99 190 -108 17 -8 35 -19 40 -24 8
-6 466 -271 645 -372 19 -11 37 -23 38 -27 2 -5 8 -8 13 -8 6 0 49 -23 97 -51
48 -29 107 -63 132 -77 25 -14 86 -48 135 -77 50 -29 108 -63 131 -76 127 -73
331 -191 344 -199 33 -21 248 -144 300 -172 30 -17 60 -34 65 -38 6 -4 27 -17
48 -29 57 -32 96 -55 164 -95 34 -20 66 -36 71 -36 6 0 12 -3 14 -8 4 -10 165
-102 178 -102 5 0 10 -4 10 -10 0 -19 20 -10 162 73 168 98 327 189 406 234
31 17 62 35 67 40 6 4 28 17 50 28 22 11 42 23 45 26 3 4 32 21 65 38 33 18
93 52 133 76 41 25 77 45 82 45 4 0 13 7 20 15 7 8 16 13 20 10 5 -3 10 -1 12
3 1 5 28 22 58 39 30 17 96 54 145 83 50 29 103 60 120 69 16 9 32 19 35 22 3
3 20 11 38 18 17 8 32 17 32 22 0 4 10 11 22 15 13 4 39 17 58 29 39 25 337
197 415 240 28 16 53 33 57 39 4 6 8 7 8 3 0 -4 20 6 45 23 25 17 45 28 45 24
0 -3 15 5 34 20 19 14 37 26 40 26 3 0 43 22 88 49 134 78 279 162 338 194 30
16 60 33 65 38 10 7 102 61 180 104 117 66 140 79 145 85 3 3 30 19 60 34 30
16 57 31 60 35 3 4 16 12 30 18 14 7 48 26 75 42 28 17 59 35 70 41 11 5 54
30 95 55 41 24 91 52 110 61 19 9 37 19 40 23 3 4 51 33 108 65 l104 58 21
-20 c59 -54 184 -106 282 -117 28 -3 57 -8 67 -11 9 -3 19 0 23 6 5 8 10 8 20
0 7 -6 16 -7 18 -3 3 5 20 10 39 11 89 6 243 83 306 152 13 14 33 36 46 50 44
48 100 155 111 211 2 9 7 32 12 50 11 40 5 244 -6 244 -2 0 -4 11 -7 25 -16
92 -128 248 -223 310 l-45 30 0 1950 c-1 1395 2 1950 10 1950 16 0 125 78 165
119 155 158 208 414 127 610 -6 14 -12 28 -13 31 -9 36 -86 144 -135 188 -79
73 -188 127 -295 147 -38 7 -161 7 -198 0 -74 -14 -197 -65 -218 -91 -8 -10
-17 -9 -45 7 -19 10 -49 27 -67 38 -18 10 -89 51 -157 91 -69 40 -141 82 -160
93 -19 11 -48 28 -65 37 -16 9 -49 28 -72 43 -24 15 -45 27 -47 27 -2 0 -39
20 -80 45 -42 25 -81 45 -86 45 -6 0 -10 5 -10 10 0 6 -5 10 -10 10 -6 0 -27
11 -48 23 -35 22 -56 35 -179 104 -27 14 -72 41 -101 60 -29 18 -55 33 -58 33
-4 0 -55 29 -115 65 -60 36 -120 70 -134 75 -14 5 -25 14 -25 20 0 5 -9 10
-19 10 -11 0 -22 4 -25 9 -3 5 -87 55 -186 111 -99 56 -183 106 -186 111 -3 5
-10 7 -15 4 -5 -4 -9 -2 -9 3 0 5 -8 12 -17 15 -10 4 -36 18 -58 31 -22 14
-49 30 -60 36 -11 5 -42 23 -70 39 -27 17 -66 39 -85 49 -19 10 -69 39 -110
64 -41 25 -185 108 -320 185 -135 78 -317 183 -405 234 -88 51 -175 101 -194
110 -18 10 -42 26 -52 35 -11 9 -19 14 -19 10 0 -4 -12 1 -27 12 -16 10 -48
30 -73 44 -25 14 -117 67 -205 118 -88 51 -180 104 -205 118 -25 13 -49 28
-54 33 -14 12 -15 12 -70 -19z m241 -554 c32 -17 60 -35 61 -40 2 -4 8 -8 13
-8 7 0 272 -150 499 -283 19 -11 55 -32 80 -46 25 -13 48 -29 51 -34 3 -5 10
-9 15 -9 5 0 36 -16 69 -35 68 -40 112 -65 170 -96 22 -12 42 -25 45 -28 3 -3
32 -20 65 -38 33 -18 65 -36 70 -41 6 -4 37 -22 70 -40 69 -38 153 -86 175
-100 8 -5 107 -63 220 -128 177 -103 251 -145 345 -196 11 -6 22 -14 25 -17 3
-3 12 -9 20 -12 8 -4 30 -16 48 -27 62 -38 437 -253 477 -274 22 -12 42 -23
45 -26 4 -5 90 -55 204 -120 17 -9 59 -34 93 -54 34 -20 66 -36 71 -36 6 0 12
-3 14 -8 3 -7 125 -82 133 -82 2 0 76 -43 166 -95 89 -52 165 -95 169 -95 9 0
20 -25 20 -44 0 -7 -15 -12 -37 -12 -21 -1 -94 -4 -163 -8 -146 -8 -256 -14
-395 -21 -110 -5 -244 -12 -375 -20 -209 -11 -469 -25 -570 -30 -41 -2 -131
-7 -200 -10 -213 -12 -366 -19 -586 -29 -39 -2 -75 -5 -80 -7 -5 -2 -46 -4
-91 -4 -46 0 -83 -2 -83 -5 0 -3 -37 -5 -83 -6 -45 0 -136 -4 -202 -8 -66 -3
-174 -8 -240 -11 l-120 -5 -18 40 c-21 44 -144 180 -163 180 -7 0 -14 4 -16 9
-5 13 -117 67 -156 76 l-34 7 6 96 c4 54 9 133 11 177 3 44 7 114 10 155 2 41
7 122 11 180 3 58 7 128 9 155 2 28 6 100 9 162 3 61 8 140 11 175 3 34 8 106
11 158 3 52 7 129 10 170 2 41 6 107 8 145 2 39 7 122 11 185 4 63 7 123 7
133 -1 22 -3 22 65 -15z m-373 -35 c-2 -16 -6 -73 -8 -128 -3 -55 -5 -100 -6
-100 0 0 -3 -38 -5 -85 -3 -47 -7 -119 -10 -160 -3 -41 -7 -115 -10 -165 -3
-49 -7 -117 -9 -150 -7 -97 -17 -255 -21 -330 -2 -38 -6 -108 -9 -155 -4 -47
-9 -121 -11 -165 -14 -226 -17 -275 -20 -338 -2 -38 -5 -69 -7 -71 -1 -1 -37
-19 -79 -40 -115 -57 -211 -156 -267 -273 -16 -34 -31 -61 -33 -59 -2 2 -42 7
-89 10 -47 4 -98 9 -115 12 -16 2 -59 6 -95 9 -60 4 -90 7 -225 20 -27 3 -79
8 -115 11 -36 3 -85 7 -110 9 -25 2 -67 7 -95 10 -27 3 -81 7 -120 10 -38 3
-88 8 -110 10 -22 2 -74 7 -115 10 -41 3 -93 7 -115 10 -22 3 -69 7 -105 9
-36 3 -65 6 -65 6 0 1 -18 3 -40 5 -22 2 -76 6 -120 10 -44 4 -98 9 -120 11
-66 5 -167 15 -210 20 -52 5 -143 13 -225 19 -36 3 -83 7 -105 10 -22 3 -71 8
-110 11 -90 7 -140 12 -140 14 0 0 -29 3 -65 5 -36 2 -94 6 -130 10 -65 7
-120 12 -152 14 -40 2 -12 30 84 87 56 32 108 60 115 62 7 2 13 8 13 13 0 5 4
9 8 9 9 0 172 89 194 107 7 5 42 25 78 44 36 19 67 36 70 39 6 7 130 80 135
80 2 0 39 21 82 47 43 25 103 60 133 76 30 17 67 38 82 49 14 10 31 18 37 18
6 0 11 3 11 8 0 4 14 13 31 21 18 8 60 31 95 52 35 22 68 39 74 39 5 0 10 4
10 9 0 5 10 13 23 17 12 3 33 14 47 24 14 10 49 30 78 46 29 16 68 38 86 49
56 33 210 120 221 124 6 2 12 7 15 10 9 11 240 141 250 141 6 0 10 5 10 10 0
6 7 10 15 10 8 0 15 4 15 9 0 5 11 12 24 15 14 3 31 12 38 19 7 6 43 27 78 46
36 19 67 37 70 41 3 4 19 13 35 22 17 8 145 81 285 163 140 81 273 157 295
170 22 12 106 61 186 107 80 47 152 88 160 91 8 4 28 16 44 27 17 10 49 29 73
42 24 12 46 26 48 30 3 4 14 8 24 8 14 0 17 -6 14 -27z m-3314 -2267 c30 -3
82 -8 115 -11 33 -3 87 -8 120 -10 33 -3 78 -8 100 -10 22 -2 72 -7 110 -10
39 -3 88 -8 110 -10 45 -5 120 -12 210 -20 73 -6 138 -12 230 -21 39 -3 90 -8
115 -10 44 -3 87 -7 205 -18 33 -3 85 -8 115 -10 66 -6 155 -14 230 -22 103
-10 135 -13 206 -18 40 -3 91 -8 115 -11 47 -5 112 -11 224 -20 39 -3 88 -8
110 -10 70 -8 148 -15 220 -20 39 -3 88 -7 110 -10 22 -3 66 -7 99 -9 56 -5
70 -10 71 -24 3 -41 53 -145 99 -205 l35 -46 -17 -33 c-9 -18 -20 -34 -24 -36
-5 -2 -8 -8 -8 -12 0 -5 -14 -33 -31 -62 -17 -29 -47 -82 -66 -118 -20 -36
-42 -72 -49 -81 -8 -8 -14 -18 -14 -21 0 -4 -20 -41 -45 -82 -25 -42 -45 -79
-45 -82 0 -3 -16 -30 -35 -60 -19 -30 -35 -58 -35 -63 0 -5 -7 -14 -15 -21 -9
-7 -13 -15 -10 -18 3 -3 -1 -12 -8 -21 -12 -14 -50 -78 -126 -214 -12 -21 -40
-71 -62 -110 -23 -40 -55 -97 -72 -127 -17 -30 -34 -56 -39 -58 -4 -2 -8 -9
-8 -16 0 -6 -20 -45 -45 -85 -25 -40 -45 -74 -45 -76 0 -2 -30 -55 -66 -117
-37 -62 -74 -126 -83 -143 -9 -16 -90 -159 -180 -316 l-164 -286 -56 0 c-79
-1 -131 -9 -181 -29 l-43 -17 -21 26 c-17 21 -185 295 -254 412 -9 17 -19 32
-22 35 -3 3 -39 61 -80 130 -41 69 -78 127 -82 128 -5 2 -8 8 -8 12 0 5 -32
59 -70 120 -38 61 -70 115 -70 120 0 6 -4 10 -8 10 -4 0 -13 12 -20 28 -6 15
-24 46 -39 69 -26 40 -145 232 -168 271 -31 52 -129 211 -183 296 -17 27 -37
62 -44 77 -7 16 -16 29 -21 29 -4 0 -11 10 -16 23 -9 23 -112 193 -131 214 -5
7 -10 15 -10 17 0 10 -64 111 -72 114 -4 2 -8 8 -8 13 0 5 -12 28 -27 52 -16
23 -30 47 -33 52 -10 21 -73 123 -131 215 -33 52 -62 102 -66 110 -3 8 -14 27
-25 41 l-18 27 39 47 c21 26 50 70 64 99 25 50 28 53 59 50 18 -2 58 -6 88 -8z
m7044 -40 c-3 -6 -25 -27 -50 -46 -25 -19 -60 -48 -78 -65 -18 -16 -61 -52
-95 -80 -34 -27 -74 -61 -90 -75 -31 -28 -55 -48 -126 -105 -27 -22 -54 -45
-60 -51 -5 -6 -50 -44 -100 -85 -49 -41 -95 -78 -101 -84 -7 -5 -29 -24 -50
-42 -22 -18 -52 -44 -69 -58 -16 -15 -46 -38 -65 -53 -19 -15 -39 -32 -45 -39
-5 -6 -68 -60 -140 -119 -71 -59 -132 -112 -133 -116 -2 -4 -8 -6 -13 -2 -5 3
-9 1 -9 -4 0 -5 -37 -39 -82 -77 -147 -122 -263 -219 -282 -237 -15 -14 -22
-15 -40 -5 -11 7 -23 15 -26 18 -8 10 -75 43 -82 41 -5 -1 -8 2 -8 8 0 5 -8
10 -18 10 -10 0 -23 5 -30 12 -7 7 -12 9 -12 6 0 -3 -24 0 -52 6 -129 30 -306
0 -409 -69 -21 -14 -44 -25 -50 -25 -6 0 -39 27 -73 59 -33 32 -77 73 -96 91
-19 18 -96 90 -170 160 -74 70 -151 142 -170 160 -19 18 -96 90 -170 160 -74
70 -156 148 -182 172 -50 47 -56 61 -35 83 22 26 32 40 54 80 26 50 63 160 63
192 0 12 6 23 13 24 6 0 28 2 47 4 19 2 96 6 170 9 74 4 162 9 195 11 33 3
114 7 180 10 66 3 152 8 190 10 61 3 206 11 395 20 30 2 111 6 180 10 69 3
163 8 210 11 47 2 126 6 175 9 110 6 299 15 378 18 31 1 57 4 57 7 0 3 42 5
93 6 97 1 353 12 447 19 30 2 113 7 185 10 71 3 130 7 131 8 1 1 14 3 27 3 16
1 24 -3 21 -10z m321 -251 c33 -22 81 -49 106 -59 l46 -19 0 -1901 0 -1901
-53 -16 c-29 -9 -78 -31 -109 -48 l-55 -31 -33 37 c-17 20 -36 41 -42 47 -5 6
-57 65 -115 131 -58 66 -109 125 -115 131 -5 6 -39 44 -75 84 -36 40 -69 78
-75 84 -5 6 -41 47 -80 91 -38 44 -80 90 -92 102 -13 12 -23 24 -23 27 0 3
-12 18 -27 34 -16 15 -51 55 -80 88 -28 32 -62 70 -75 84 -12 15 -48 55 -78
89 -30 35 -62 71 -70 80 -14 14 -59 65 -176 199 -16 19 -42 48 -59 66 -39 42
-145 161 -170 193 -11 14 -38 44 -60 67 -22 24 -60 67 -85 97 -25 29 -64 73
-87 98 -24 24 -43 46 -43 48 0 4 -21 27 -102 115 -33 36 -35 49 -9 72 27 25
89 150 106 215 17 64 14 221 -5 295 -12 49 -12 50 16 74 16 13 51 43 78 66 27
22 65 54 85 71 20 16 38 32 41 35 3 3 30 25 60 50 65 53 86 71 120 101 14 11
45 38 70 58 24 20 51 43 60 51 9 8 36 31 60 50 24 19 62 52 84 72 23 21 44 38
47 38 3 0 19 12 36 28 16 15 43 38 59 52 67 56 150 126 162 135 7 5 21 17 30
25 9 9 46 40 82 70 36 30 72 61 82 70 9 8 30 26 48 39 18 14 45 36 61 50 16
14 34 31 41 36 26 21 133 110 146 122 7 7 34 29 60 50 26 21 65 55 87 75 21
20 44 34 50 30 5 -3 37 -24 70 -47z m-7809 -167 c38 -62 71 -117 74 -123 3 -5
22 -36 43 -68 20 -31 37 -61 37 -66 0 -4 9 -16 20 -26 11 -10 20 -22 20 -26 0
-7 220 -372 295 -489 30 -47 75 -120 103 -167 47 -80 122 -199 132 -210 5 -7
10 -16 10 -20 0 -4 20 -39 45 -76 25 -38 45 -70 45 -72 0 -4 95 -157 138 -225
9 -14 17 -28 17 -32 0 -3 10 -18 22 -32 13 -14 21 -26 18 -26 -2 0 23 -43 55
-95 33 -52 60 -99 60 -105 0 -5 5 -10 10 -10 6 0 10 -4 10 -9 0 -6 14 -30 30
-54 17 -25 30 -49 30 -55 0 -6 4 -12 8 -14 5 -1 23 -28 40 -58 42 -70 51 -85
85 -137 15 -23 27 -46 27 -52 0 -6 5 -11 10 -11 6 0 10 -5 10 -11 0 -6 13 -30
30 -54 17 -24 30 -46 30 -49 0 -3 13 -25 30 -49 17 -25 30 -50 30 -56 0 -6 5
-11 10 -11 6 0 10 -7 10 -15 0 -8 4 -15 8 -15 12 0 31 -57 21 -67 -13 -13 -66
-126 -73 -156 -23 -97 -26 -260 -5 -299 13 -24 -1 -38 -69 -73 -21 -11 -68
-37 -107 -59 -38 -22 -72 -41 -75 -41 -3 0 -9 -3 -15 -7 -9 -5 -25 -14 -117
-66 -18 -10 -73 -41 -123 -68 -49 -27 -99 -54 -110 -61 -11 -7 -27 -15 -35
-19 -8 -4 -55 -30 -105 -58 -49 -28 -93 -50 -97 -48 -5 1 -8 -3 -8 -8 0 -6 -4
-10 -9 -10 -5 0 -40 -17 -78 -39 -100 -56 -161 -90 -230 -127 l-62 -34 -52 50
c-28 27 -56 47 -60 44 -5 -3 -9 0 -9 6 0 12 -118 68 -162 77 -15 3 -32 11 -35
17 -9 14 -10 3676 -2 3676 4 0 37 -50 75 -112z m3801 -253 c50 -1 113 3 139
10 l48 12 76 -72 c138 -133 178 -171 281 -266 55 -52 127 -119 158 -149 52
-49 152 -144 403 -380 66 -61 76 -75 67 -91 -5 -11 -7 -19 -3 -19 3 0 2 -6 -4
-12 -14 -18 -26 -91 -27 -168 l-1 -65 -124 -51 c-69 -29 -136 -57 -150 -63
-14 -5 -77 -31 -140 -57 -160 -64 -230 -93 -267 -110 -17 -8 -38 -14 -47 -14
-9 0 -16 -4 -16 -10 0 -5 -8 -10 -18 -10 -10 0 -22 -3 -26 -7 -4 -5 -11 -8
-14 -9 -4 0 -16 -4 -27 -9 -48 -19 -193 -78 -220 -90 -16 -7 -104 -43 -195
-79 -91 -37 -174 -71 -185 -76 -77 -35 -214 -87 -219 -83 -3 4 -6 1 -6 -5 0
-7 -5 -12 -11 -12 -6 0 -25 -6 -42 -14 -18 -7 -57 -23 -87 -35 -60 -24 -77
-31 -130 -54 -36 -16 -91 -39 -100 -42 -33 -11 -238 -95 -298 -122 -29 -12
-54 -23 -57 -23 -2 0 -16 -5 -32 -11 -15 -6 -29 -10 -30 -10 -1 0 -15 -6 -29
-14 -24 -12 -30 -12 -50 3 -29 21 -29 24 -1 70 13 20 27 44 30 52 4 8 15 29
25 45 10 17 30 50 44 75 14 25 75 132 137 239 61 106 111 197 111 202 0 5 5 9
10 9 6 0 10 5 10 12 0 6 13 32 29 57 16 25 40 66 53 91 13 25 36 64 51 87 15
24 27 47 27 53 0 5 5 10 11 10 5 0 8 4 4 9 -3 5 1 15 8 23 7 7 18 24 24 38 7
14 24 43 37 65 14 22 35 58 46 80 12 22 48 85 81 140 32 55 67 116 77 135 9
19 19 37 22 40 12 11 110 188 110 199 0 6 5 11 10 11 6 0 10 7 10 15 0 8 5 15
11 15 5 0 8 4 5 9 -3 5 1 14 9 21 8 7 15 17 15 22 0 5 16 34 35 64 19 30 35
57 35 60 0 7 64 115 92 156 10 15 18 34 18 43 0 8 3 15 8 15 4 0 16 15 26 34
17 32 21 34 45 24 14 -5 67 -11 118 -13z m1310 -1546 l54 -57 -16 -53 c-9 -30
-21 -64 -26 -77 -5 -13 -7 -28 -4 -33 4 -5 2 -9 -3 -9 -5 0 -15 -26 -22 -57
-7 -32 -16 -62 -19 -68 -3 -5 -6 -16 -7 -22 -1 -7 -11 -41 -22 -75 -20 -62
-45 -151 -43 -155 0 -2 -6 -18 -15 -38 -8 -19 -12 -35 -9 -35 4 0 3 -6 -2 -12
-4 -7 -8 -16 -9 -20 -1 -5 -3 -10 -4 -13 -1 -3 -3 -8 -4 -12 -12 -44 -33 -118
-63 -213 -19 -63 -39 -128 -44 -145 -5 -16 -16 -54 -25 -83 -9 -29 -17 -58
-18 -65 -1 -7 -9 -34 -18 -62 -22 -68 -69 -222 -72 -237 -3 -15 -8 -29 -26
-78 -6 -19 -12 -43 -12 -52 1 -10 -2 -18 -6 -18 -4 0 -8 -8 -9 -17 -1 -18 -6
-36 -15 -63 -13 -35 -70 -227 -74 -249 -3 -14 -7 -28 -10 -33 -3 -4 -7 -17
-10 -28 -9 -41 -13 -57 -42 -150 -17 -52 -42 -134 -56 -182 -67 -225 -80 -269
-108 -360 -16 -53 -31 -103 -32 -110 -2 -7 -6 -20 -9 -28 -3 -8 -13 -42 -22
-75 -10 -33 -20 -67 -23 -75 -3 -8 -7 -19 -8 -25 -1 -5 -3 -12 -4 -15 -1 -3
-3 -12 -5 -20 -2 -8 -15 -53 -29 -100 -62 -201 -76 -247 -76 -252 0 -4 -5 -19
-12 -35 -6 -15 -12 -32 -12 -38 -3 -22 -19 -81 -24 -90 -4 -5 -7 -14 -8 -20
-3 -16 -100 -340 -159 -533 -7 -23 -11 -42 -8 -42 3 0 1 -6 -5 -12 -9 -12 -25
-70 -23 -83 1 -3 -6 -19 -14 -35 -8 -16 -15 -32 -15 -35 1 -28 -1 -35 -10 -30
-5 3 -55 97 -111 208 -56 111 -218 434 -361 717 -143 283 -276 547 -295 585
-19 39 -39 77 -43 85 -40 72 -150 299 -150 307 0 6 -4 13 -8 15 -4 2 -46 80
-92 173 -47 94 -88 172 -92 173 -5 2 -8 11 -8 21 0 9 -4 21 -9 27 -8 8 -224
433 -226 444 -1 3 -13 28 -27 56 l-27 51 40 39 c45 43 105 125 101 137 -1 4 2
7 7 7 7 0 41 74 47 103 1 4 2 8 4 10 15 18 21 250 7 300 -7 24 -4 29 20 37 16
6 36 15 45 20 10 6 23 10 28 10 6 0 30 9 53 19 23 10 71 31 107 45 36 15 74
31 85 36 11 5 117 48 235 96 307 124 451 183 485 199 17 7 42 17 58 20 15 4
27 11 27 16 0 5 3 8 8 7 7 -3 139 47 219 83 23 11 45 19 48 19 3 0 25 8 48 19
23 10 67 29 97 41 30 12 64 26 75 31 17 7 296 122 390 160 17 7 35 13 40 15 6
1 81 32 167 68 86 36 162 66 167 66 6 0 11 4 11 9 0 23 37 1 87 -50z m629
-206 c27 -32 56 -65 64 -74 42 -46 111 -123 165 -184 33 -38 68 -77 78 -87 9
-10 17 -20 17 -22 0 -3 17 -22 38 -43 20 -21 58 -63 84 -93 25 -30 61 -72 80
-92 18 -20 55 -62 83 -94 27 -31 61 -69 75 -84 14 -15 44 -50 67 -76 23 -27
56 -65 75 -85 18 -20 58 -65 88 -99 30 -35 62 -71 70 -80 8 -9 42 -47 75 -85
33 -37 69 -77 80 -89 11 -12 47 -53 80 -91 33 -38 83 -94 110 -125 28 -31 77
-87 110 -124 85 -98 136 -155 165 -186 14 -14 48 -53 75 -85 28 -33 60 -70 73
-84 12 -13 22 -28 22 -33 0 -5 4 -6 10 -3 14 8 23 -40 12 -62 -5 -10 -12 -34
-16 -53 -3 -19 -8 -45 -11 -58 -5 -27 -9 -113 -5 -127 6 -26 -3 -41 -32 -54
-18 -8 -35 -17 -38 -21 -5 -6 -146 -88 -202 -117 -15 -8 -30 -19 -33 -24 -4
-5 -11 -7 -16 -4 -5 4 -9 1 -9 -4 0 -6 -7 -11 -15 -11 -8 0 -15 -4 -15 -9 0
-5 -11 -12 -24 -15 -14 -3 -31 -12 -38 -19 -7 -6 -43 -28 -78 -46 -36 -19 -71
-41 -78 -48 -7 -7 -18 -13 -23 -13 -5 0 -28 -11 -50 -25 -75 -48 -371 -215
-380 -215 -5 0 -9 -4 -9 -9 0 -5 -15 -14 -32 -22 -18 -7 -35 -16 -38 -19 -3
-4 -32 -21 -65 -39 -33 -18 -64 -36 -70 -41 -5 -4 -30 -19 -55 -32 -25 -14
-74 -43 -110 -63 -36 -21 -81 -47 -100 -57 -19 -11 -48 -28 -65 -39 -16 -10
-36 -22 -44 -26 -8 -3 -64 -35 -125 -71 -170 -99 -179 -104 -211 -120 -16 -9
-32 -18 -35 -21 -3 -3 -18 -13 -35 -21 -16 -8 -37 -19 -45 -26 -8 -6 -40 -25
-70 -41 -30 -17 -90 -51 -133 -76 -43 -26 -80 -47 -82 -47 -2 0 -40 -22 -85
-50 -45 -27 -88 -50 -96 -50 -8 0 -14 -3 -14 -8 0 -4 -17 -16 -37 -27 -21 -11
-65 -36 -98 -56 -33 -20 -80 -47 -105 -61 -92 -51 -128 -72 -240 -138 -305
-178 -322 -186 -307 -145 4 8 7 19 8 23 2 4 9 27 16 52 47 148 124 408 127
427 3 12 9 31 16 42 6 12 8 21 5 21 -4 0 -3 6 2 13 4 6 8 17 9 22 1 6 11 39
23 74 11 36 18 68 15 73 -3 4 0 8 5 8 6 0 11 10 11 23 0 13 3 27 7 31 4 3 8
12 9 19 2 7 6 23 9 37 3 14 8 32 10 40 2 8 4 16 5 18 2 1 3 5 4 10 2 7 18 61
58 190 11 34 21 68 22 75 2 6 6 19 9 27 8 24 138 463 142 483 2 9 6 21 9 25 3
5 7 19 10 33 2 13 11 44 20 69 8 25 27 86 41 135 88 298 107 362 143 480 44
143 74 245 78 260 3 18 45 160 51 175 4 8 7 17 8 20 0 3 4 14 7 25 4 11 16 52
27 90 40 136 92 311 113 380 12 39 23 75 24 80 2 6 10 34 18 63 9 28 23 76 32
105 8 28 16 57 18 62 1 6 13 44 26 85 13 41 24 77 25 80 15 57 35 125 80 270
15 47 29 96 31 110 3 13 6 25 7 27 1 1 36 3 77 4 41 1 86 5 99 9 58 15 68 11
117 -47z m-3978 -1397 c12 -4 22 -12 22 -17 0 -5 6 -9 13 -9 8 0 27 -6 43 -14
46 -23 143 -41 215 -40 l66 0 52 -105 c29 -58 56 -113 61 -121 11 -18 221
-435 447 -885 92 -181 170 -332 175 -333 4 -2 5 -8 2 -14 -4 -6 -3 -13 2 -17
5 -3 31 -51 59 -106 27 -55 54 -103 58 -106 5 -3 8 -9 8 -13 -2 -10 133 -280
144 -288 5 -4 7 -8 4 -8 -3 0 13 -37 37 -82 70 -138 279 -551 282 -560 2 -4
-3 -8 -11 -8 -9 0 -17 4 -19 8 -1 4 -30 23 -63 41 -119 67 -291 166 -315 182
-8 5 -23 12 -32 15 -10 4 -18 10 -18 15 0 5 -3 8 -8 7 -6 -3 -40 16 -127 70
-11 7 -36 20 -55 30 -19 9 -37 19 -40 22 -3 3 -16 11 -30 19 -14 8 -79 46
-145 84 -66 38 -140 81 -165 95 -25 13 -140 80 -257 148 -117 68 -215 124
-219 124 -4 0 -15 6 -23 14 -9 7 -36 25 -61 38 -25 14 -67 38 -95 53 -27 16
-59 33 -70 39 -11 6 -22 13 -25 16 -5 5 -265 155 -340 196 -19 10 -37 21 -40
24 -3 3 -25 16 -50 29 -25 14 -48 29 -51 34 -3 5 -10 9 -15 9 -5 0 -50 24
-101 54 -51 30 -96 54 -102 54 -5 0 -11 4 -13 8 -1 5 -29 23 -60 40 -59 32
-151 85 -178 102 -8 5 -87 50 -175 101 -210 120 -207 118 -198 132 4 7 8 17
10 22 1 6 5 21 9 35 4 14 8 72 9 129 l2 104 39 22 c21 12 107 58 189 104 83
45 157 86 165 91 62 37 253 140 260 140 5 0 10 5 12 11 2 5 11 11 20 12 9 2
22 8 29 13 8 6 70 42 139 79 69 38 127 71 130 74 3 3 10 7 15 8 6 1 39 18 75
39 36 20 88 48 115 63 28 14 52 28 55 32 14 18 39 13 75 -16 22 -18 50 -36 63
-39z"/>
</g>
</svg>
